<?xml version="1.0" ?><svg enable-background="new 0 0 64 64" version="1.1" viewBox="0 0 64 64" xml:space="preserve" xmlns="http://www.w3.org/2000/svg" xmlns:xlink="http://www.w3.org/1999/xlink"><g id="row_4"/><g id="row_3"><g id="accuracy"><circle cx="31" cy="33" fill="#263238" r="29"/><circle cx="31" cy="33" fill="#039BE5" r="22"/><circle cx="31" cy="33" fill="#E53935" r="14"/><circle cx="31" cy="33" fill="#FFEB3B" r="7"/><path d="M31,63C14.5,63,1,49.6,1,33S14.5,3,31,3s30,13.5,30,30S47.5,63,31,63z M31,5C15.6,5,3,17.6,3,33    s12.6,28,28,28s28-12.6,28-28S46.4,5,31,5z" fill="#B3E5FC"/><path d="M42.8,21.2l2.6-4c1.8-2.7,3.1-5.7,4.1-8.8C50.1,6.4,52,5,54.2,5c1.3,0,2.5,0.5,3.4,1.4L42.8,21.2z" fill="#B71C1C"/><path d="M57.6,6.3c0.9,1,1.4,2.2,1.4,3.5c0,2.2-1.4,4.1-3.5,4.8c-3.1,1-6,2.3-8.8,4.1l-4,2.6L57.6,6.3z" fill="#E53935"/><rect fill="#BDBDBD" height="2" transform="matrix(0.7071 -0.7071 0.7071 0.7071 0.2407 37.5955)" width="41" x="25" y="17.5"/><path d="M57.2,28.2c-0.5,0-1-0.1-1.6-0.2c-3.1-1-6.3-1.6-9.5-1.7c-0.6,0-1-0.5-1-1c9.6-1.7,15.8-1.7,15.8-1.7    l1,0.1c-0.1,0.8-0.2,1.6-0.7,2.4C60.3,27.4,58.8,28.2,57.2,28.2z" fill="#18FFFF"/><path d="M38.7,19.1c-0.5,0-1-0.4-1-0.9c-0.2-2.8-1-5.9-2.3-9.4C34.6,6.6,35.3,4.3,37,3c1-0.8,2.3-1.1,3.5-1    C41,5.2,39.1,17.2,38.7,19.1C38.7,19,38.7,19.1,38.7,19.1z" fill="#18FFFF"/><path d="M33.9,30.1c4.9-8.1,7.4-17.6,7-27.1l-1,0c0.4,9.3-2,18.6-6.8,26.5c-0.6,0.6-2.8,2.8-2.8,2.8    c-0.9,0.9,0.5,2.4,1.4,1.4c0,0,2.3-2.3,2.9-2.9c7.9-4.8,17-7.2,26.4-6.8l0-1C51.5,22.7,42,25.1,33.9,30.1z" fill="#546E7A"/></g></g><g id="row_2"/><g id="row_1"/></svg>     